<svg width="104" height="104" viewBox="0 0 104 104" fill="none" xmlns="http://www.w3.org/2000/svg">
<path d="M52 9.36406C65.8938 9.36406 67.5391 9.425 73.0031 9.66875C78.0813 9.89219 80.8235 10.7453 82.6516 11.4563C85.0688 12.3906 86.8156 13.5281 88.6235 15.3359C90.4516 17.1641 91.5688 18.8906 92.5031 21.3078C93.2141 23.1359 94.0672 25.8984 94.2906 30.9562C94.5344 36.4406 94.5953 38.0859 94.5953 51.9594C94.5953 65.8531 94.5344 67.4984 94.2906 72.9625C94.0672 78.0406 93.2141 80.7828 92.5031 82.6109C91.5688 85.0281 90.4313 86.775 88.6235 88.5828C86.7953 90.4109 85.0688 91.5281 82.6516 92.4625C80.8235 93.1734 78.061 94.0266 73.0031 94.25C67.5188 94.4938 65.8735 94.5547 52 94.5547C38.1063 94.5547 36.4609 94.4938 30.9969 94.25C25.9188 94.0266 23.1766 93.1734 21.3484 92.4625C18.9313 91.5281 17.1844 90.3906 15.3766 88.5828C13.5484 86.7547 12.4313 85.0281 11.4969 82.6109C10.7859 80.7828 9.93281 78.0203 9.70938 72.9625C9.46563 67.4781 9.40469 65.8328 9.40469 51.9594C9.40469 38.0656 9.46563 36.4203 9.70938 30.9562C9.93281 25.8781 10.7859 23.1359 11.4969 21.3078C12.4313 18.8906 13.5688 17.1438 15.3766 15.3359C17.2047 13.5078 18.9313 12.3906 21.3484 11.4563C23.1766 10.7453 25.9391 9.89219 30.9969 9.66875C36.4609 9.425 38.1063 9.36406 52 9.36406ZM52 0C37.8828 0 36.1156 0.0609375 30.5703 0.304688C25.0453 0.548438 21.2469 1.44219 17.9563 2.72187C14.5234 4.0625 11.6188 5.82969 8.73438 8.73438C5.82969 11.6188 4.0625 14.5234 2.72188 17.9359C1.44219 21.2469 0.548438 25.025 0.304688 30.55C0.0609375 36.1156 0 37.8828 0 52C0 66.1172 0.0609375 67.8844 0.304688 73.4297C0.548438 78.9547 1.44219 82.7531 2.72188 86.0438C4.0625 89.4766 5.82969 92.3813 8.73438 95.2656C11.6188 98.15 14.5234 99.9375 17.9359 101.258C21.2469 102.538 25.025 103.431 30.55 103.675C36.0953 103.919 37.8625 103.98 51.9797 103.98C66.0969 103.98 67.8641 103.919 73.4094 103.675C78.9344 103.431 82.7328 102.538 86.0235 101.258C89.436 99.9375 92.3406 98.15 95.225 95.2656C98.1094 92.3813 99.8969 89.4766 101.217 86.0641C102.497 82.7531 103.391 78.975 103.634 73.45C103.878 67.9047 103.939 66.1375 103.939 52.0203C103.939 37.9031 103.878 36.1359 103.634 30.5906C103.391 25.0656 102.497 21.2672 101.217 17.9766C99.9375 14.5234 98.1703 11.6188 95.2656 8.73438C92.3813 5.85 89.4766 4.0625 86.0641 2.74219C82.7531 1.4625 78.975 0.56875 73.45 0.325C67.8844 0.0609375 66.1172 0 52 0Z" fill="#F05050"/>
<path d="M52 25.2891C37.2531 25.2891 25.2891 37.2531 25.2891 52C25.2891 66.7469 37.2531 78.7109 52 78.7109C66.7469 78.7109 78.7109 66.7469 78.7109 52C78.7109 37.2531 66.7469 25.2891 52 25.2891ZM52 69.3266C42.4328 69.3266 34.6734 61.5672 34.6734 52C34.6734 42.4328 42.4328 34.6734 52 34.6734C61.5672 34.6734 69.3266 42.4328 69.3266 52C69.3266 61.5672 61.5672 69.3266 52 69.3266Z" fill="#F05050"/>
<path d="M86.0031 24.2328C86.0031 27.6859 83.2 30.4687 79.7672 30.4687C76.3141 30.4687 73.5312 27.6656 73.5312 24.2328C73.5312 20.7796 76.3344 17.9968 79.7672 17.9968C83.2 17.9968 86.0031 20.8 86.0031 24.2328Z" fill="#F05050"/>
</svg>
