<svg width="104" height="104" viewBox="0 0 104 104" fill="none" xmlns="http://www.w3.org/2000/svg">
<path d="M96.3016 0H7.67812C3.43281 0 0 3.35156 0 7.49531V96.4844C0 100.628 3.43281 104 7.67812 104H96.3016C100.547 104 104 100.628 104 96.5047V7.49531C104 3.35156 100.547 0 96.3016 0ZM30.8547 88.6234H15.4172V38.9797H30.8547V88.6234ZM23.1359 32.2156C18.1797 32.2156 14.1781 28.2141 14.1781 23.2781C14.1781 18.3422 18.1797 14.3406 23.1359 14.3406C28.0719 14.3406 32.0734 18.3422 32.0734 23.2781C32.0734 28.1938 28.0719 32.2156 23.1359 32.2156ZM88.6234 88.6234H73.2063V64.4922C73.2063 58.7438 73.1047 51.3297 65.1828 51.3297C57.1594 51.3297 55.9406 57.6063 55.9406 64.0859V88.6234H40.5438V38.9797H55.3312V45.7641H55.5344C57.5859 41.8641 62.6234 37.7406 70.1188 37.7406C85.7391 37.7406 88.6234 48.0188 88.6234 61.3844V88.6234Z" fill="#F05050"/>
</svg>
