<svg width="104" height="104" viewBox="0 0 104 104" fill="none" xmlns="http://www.w3.org/2000/svg">
<path d="M52 104C80.7257 104 104 80.7257 104 52C104 23.2743 80.7257 0 52 0C23.2743 0 0 23.2743 0 52C0 80.7257 23.2743 104 52 104ZM23.7943 50.8733L73.931 31.5423C76.258 30.7017 78.2903 32.11 77.5363 35.6287L77.5407 35.6243L69.004 75.842C68.3713 78.6933 66.677 79.3867 64.3067 78.0433L51.3067 68.4623L45.0363 74.503C44.343 75.1963 43.758 75.7813 42.4147 75.7813L43.3377 62.5517L67.431 40.7853C68.4797 39.8623 67.197 39.3423 65.8147 40.261L36.0403 59.007L23.205 55.003C20.4187 54.119 20.358 52.2167 23.7943 50.8733Z" fill="#F05050"/>
</svg>
