<svg width="104" height="104" viewBox="0 0 104 104" fill="none" xmlns="http://www.w3.org/2000/svg">
<g clip-path="url(#clip0)">
<path d="M32.7173 94.2504C71.953 94.2504 93.4192 61.7362 93.4192 33.5485C93.4192 32.6345 93.3989 31.7001 93.3583 30.786C97.5341 27.7662 101.138 24.0256 104 19.7401C100.111 21.4704 95.9818 22.6005 91.7536 23.0917C96.2056 20.4231 99.539 16.2309 101.136 11.2921C96.9477 13.7742 92.3675 15.5251 87.5916 16.4698C84.3736 13.0506 80.1189 10.7867 75.4853 10.028C70.8517 9.26943 66.0972 10.0584 61.9569 12.2729C57.8166 14.4874 54.5211 18.0042 52.58 22.2795C50.6389 26.5548 50.1602 31.3505 51.218 35.9251C42.7375 35.4995 34.4411 33.2965 26.8666 29.4589C19.2921 25.6213 12.6087 20.2347 7.24953 13.6484C4.52573 18.3445 3.69225 23.9016 4.91847 29.1902C6.14469 34.4788 9.3386 39.1021 13.8511 42.1204C10.4634 42.0129 7.1499 41.1008 4.18438 39.4595V39.7235C4.18134 44.6518 5.88509 49.429 9.00601 53.2432C12.1269 57.0573 16.4724 59.6729 21.3037 60.6454C18.1656 61.504 14.8719 61.6291 11.6777 61.011C13.041 65.2494 15.6935 68.9563 19.265 71.6146C22.8365 74.2728 27.1489 75.7497 31.6002 75.8392C24.0432 81.7753 14.7081 84.995 5.09844 84.9798C3.39424 84.9772 1.69173 84.8727 0 84.667C9.76238 90.9301 21.1186 94.2565 32.7173 94.2504Z" fill="#F05050"/>
</g>
<defs>
<clipPath id="clip0">
<rect width="104" height="104" fill="white"/>
</clipPath>
</defs>
</svg>
